<svg width="21" height="20" viewBox="0 0 21 20" fill="none" xmlns="http://www.w3.org/2000/svg">
<path fill-rule="evenodd" clip-rule="evenodd" d="M13.5534 4.99967C14.1703 4.99967 14.7089 4.66451 14.9971 4.16634H16.8867C17.347 4.16634 17.7201 4.53944 17.7201 4.99967V6.77136C16.2824 7.14139 15.2201 8.44651 15.2201 9.99967C15.2201 11.5528 16.2824 12.8579 17.7201 13.228V14.9997C17.7201 15.4599 17.347 15.833 16.8867 15.833H14.9971C14.7089 15.3348 14.1703 14.9997 13.5534 14.9997C12.9365 14.9997 12.3979 15.3348 12.1097 15.833H3.55339C3.09315 15.833 2.72005 15.4599 2.72005 14.9997V13.228C4.15774 12.8579 5.22005 11.5528 5.22005 9.99967C5.22005 8.44651 4.15774 7.14139 2.72005 6.77136V4.99967C2.72005 4.53944 3.09315 4.16634 3.55339 4.16634H12.1097C12.3979 4.66451 12.9365 4.99967 13.5534 4.99967ZM16.0534 9.99967C16.0534 8.61892 17.1726 7.49967 18.5534 7.49967V4.99967C18.5534 4.0792 17.8072 3.33301 16.8867 3.33301H14.3867C14.3867 3.79324 14.0136 4.16634 13.5534 4.16634C13.0931 4.16634 12.7201 3.79324 12.7201 3.33301H3.55339C2.63291 3.33301 1.88672 4.0792 1.88672 4.99967V7.49967C3.26743 7.49967 4.38672 8.61892 4.38672 9.99967C4.38672 11.3804 3.26743 12.4997 1.88672 12.4997V14.9997C1.88672 15.9202 2.63291 16.6663 3.55339 16.6663H12.7201C12.7201 16.2061 13.0931 15.833 13.5534 15.833C14.0136 15.833 14.3867 16.2061 14.3867 16.6663H16.8867C17.8072 16.6663 18.5534 15.9202 18.5534 14.9997V12.4997C17.1726 12.4997 16.0534 11.3804 16.0534 9.99967ZM13.5534 7.49967C14.0136 7.49967 14.3867 7.12658 14.3867 6.66634C14.3867 6.20611 14.0136 5.83301 13.5534 5.83301C13.0931 5.83301 12.7201 6.20611 12.7201 6.66634C12.7201 7.12658 13.0931 7.49967 13.5534 7.49967ZM13.5534 10.833C14.0136 10.833 14.3867 10.4599 14.3867 9.99967C14.3867 9.53942 14.0136 9.16634 13.5534 9.16634C13.0931 9.16634 12.7201 9.53942 12.7201 9.99967C12.7201 10.4599 13.0931 10.833 13.5534 10.833ZM14.3867 13.333C14.3867 13.7933 14.0136 14.1663 13.5534 14.1663C13.0931 14.1663 12.7201 13.7933 12.7201 13.333C12.7201 12.8728 13.0931 12.4997 13.5534 12.4997C14.0136 12.4997 14.3867 12.8728 14.3867 13.333Z" fill="#707070"/>
</svg>
